ply
format ascii 1.0
comment Created by Blender 2.78 (sub 0) - www.blender.org, source file: 'bidir_5.ply'
element vertex 174
property float x
property float y
property float z
property float nx
property float ny
property float nz
element face 92
property list uchar uint vertex_indices
end_header
-2.744896 1.971490 1.954166 -0.000000 -0.000000 -1.000000
1.646064 2.051490 1.954165 -0.000000 -0.000000 -1.000000
1.646066 1.971490 1.954165 -0.000000 -0.000000 -1.000000
-2.744896 2.051490 1.954166 -0.000000 -0.000000 -1.000000
-2.744895 1.971490 -1.941462 -0.000000 -0.000000 -1.000000
1.646064 2.051490 -1.941463 -0.000000 -0.000000 -1.000000
1.646065 1.971490 -1.941463 -0.000000 -0.000000 -1.000000
-2.744897 2.051490 -1.941462 -0.000000 -0.000000 -1.000000
-2.744897 2.051490 -1.941462 1.000000 0.000024 0.000000
-2.744896 1.971490 1.954166 1.000000 0.000024 0.000000
-2.744895 1.971490 -1.941462 1.000000 0.000024 0.000000
-2.744896 1.971490 1.954166 1.000000 0.000000 -0.000000
-2.744897 2.051490 -1.941462 1.000000 0.000000 -0.000000
-2.744896 2.051490 1.954166 1.000000 0.000000 -0.000000
-2.744896 1.971490 1.954166 -0.000000 -1.000000 0.000000
1.646065 1.971490 -1.941463 -0.000000 -1.000000 0.000000
1.646066 1.971490 1.954165 -0.000000 -1.000000 0.000000
-2.744895 1.971490 -1.941462 0.000000 -1.000000 0.000000
1.646065 1.971490 -1.941463 1.000000 0.000016 -0.000000
1.646064 2.051490 1.954165 1.000000 0.000016 -0.000000
1.646066 1.971490 1.954165 1.000000 0.000016 -0.000000
1.646064 2.051490 1.954165 1.000000 0.000012 -0.000000
1.646065 1.971490 -1.941463 1.000000 0.000012 -0.000000
1.646064 2.051490 -1.941463 1.000000 0.000012 -0.000000
-2.744896 2.051490 1.954166 -0.000000 -1.000000 0.000000
1.646064 2.051490 -1.941463 -0.000000 -1.000000 0.000000
1.646064 2.051490 1.954165 -0.000000 -1.000000 0.000000
-2.744897 2.051490 -1.941462 0.000000 -1.000000 0.000000
-2.744896 2.051490 1.795156 1.000000 -0.000000 0.000000
-2.744896 1.971490 1.954166 1.000000 -0.000000 0.000000
-2.744896 1.971490 1.795156 1.000000 -0.000000 0.000000
-2.744896 2.051490 1.954166 1.000000 0.000000 0.000000
1.646064 2.051490 1.795155 1.000000 0.000016 -0.000000
1.646066 1.971490 1.954165 1.000000 0.000016 -0.000000
1.646066 1.971490 1.795155 1.000000 0.000016 -0.000000
1.646064 2.051490 1.954165 1.000000 0.000016 0.000000
-2.744897 2.051490 -1.852908 -1.000000 -0.000021 -0.000000
-2.744895 1.971490 -1.941462 -1.000000 -0.000021 -0.000000
-2.744895 1.971490 -1.852908 -1.000000 -0.000021 -0.000000
-2.744895 1.971490 -1.941462 -1.000000 -0.000024 0.000003
-2.744897 2.051490 -1.852908 -1.000000 -0.000024 0.000003
-2.744897 2.051490 -1.941462 -1.000000 -0.000024 0.000003
-2.744896 1.971490 1.795156 -1.000000 -0.000021 -0.000000
-2.744897 2.051490 -1.852908 -1.000000 -0.000021 -0.000000
-2.744895 1.971490 -1.852908 -1.000000 -0.000021 -0.000000
-2.744897 2.051490 -1.852908 -1.000000 0.000000 0.000000
-2.744896 1.971490 1.795156 -1.000000 0.000000 0.000000
-2.744896 2.051490 1.795156 -1.000000 0.000000 0.000000
1.646064 2.051490 -1.852909 -1.000000 -0.000012 -0.000000
1.646065 1.971490 -1.941463 -1.000000 -0.000012 -0.000000
1.646065 1.971490 -1.852909 -1.000000 -0.000012 -0.000000
1.646064 2.051490 -1.941463 -1.000000 -0.000012 0.000000
1.646065 1.971490 -1.852909 1.000000 0.000016 -0.000000
1.646064 2.051490 1.795155 1.000000 0.000016 -0.000000
1.646066 1.971490 1.795155 1.000000 0.000016 -0.000000
1.646064 2.051490 1.795155 1.000000 0.000012 -0.000000
1.646065 1.971490 -1.852909 1.000000 0.000012 -0.000000
1.646064 2.051490 -1.852909 1.000000 0.000012 -0.000000
1.646064 2.051490 1.954165 0.000000 -0.000000 1.000000
1.522548 1.971490 1.954165 0.000000 -0.000000 1.000000
1.646066 1.971490 1.954165 0.000000 -0.000000 1.000000
1.522547 2.051490 1.954165 -0.000000 0.000000 1.000000
1.522548 1.971490 -1.941463 -0.000001 -0.000000 -1.000000
1.646064 2.051490 -1.941463 -0.000001 -0.000000 -1.000000
1.646065 1.971490 -1.941463 -0.000001 -0.000000 -1.000000
1.522546 2.051490 -1.941463 -0.000001 -0.000000 -1.000000
1.646064 2.051490 -1.941463 0.000000 1.000000 0.000000
1.522546 2.051490 -1.852909 0.000000 1.000000 0.000000
1.646064 2.051490 -1.852909 0.000000 1.000000 0.000000
1.522546 2.051490 -1.941463 -0.000000 1.000000 -0.000000
-2.618621 1.971490 1.954166 0.000000 0.000000 1.000000
-2.618621 2.051490 1.954166 0.000000 0.000000 1.000000
-2.744896 1.971490 1.954166 -0.000000 0.000000 -1.000000
-2.618621 2.051490 1.954166 -0.000000 0.000000 -1.000000
-2.618621 1.971490 1.954166 -0.000000 0.000000 -1.000000
-2.744896 2.051490 1.954166 0.000000 0.000000 -1.000000
-2.618621 1.971490 -1.941462 -0.000000 -0.000000 -1.000000
1.522546 2.051490 -1.941463 -0.000000 -0.000000 -1.000000
1.522548 1.971490 -1.941463 -0.000000 -0.000000 -1.000000
-2.618624 2.051490 -1.941462 -0.000000 -0.000000 -1.000000
-2.744896 2.051490 1.795156 0.000000 -1.000000 -0.000000
-2.618621 2.051490 1.954166 0.000000 -1.000000 -0.000000
-2.744896 2.051490 1.954166 0.000000 -1.000000 -0.000000
-2.618621 2.051490 1.795156 0.000000 -1.000000 0.000000
-2.744897 2.051490 -1.852908 0.000000 -1.000000 -0.000000
-2.618621 2.051490 1.795156 0.000000 -1.000000 -0.000000
-2.744896 2.051490 1.795156 0.000000 -1.000000 -0.000000
-2.618624 2.051490 -1.852908 0.000000 -1.000000 0.000000
-2.618624 2.051490 -1.941462 0.000000 1.000000 0.000000
-2.744897 2.051490 -1.852908 0.000000 1.000000 0.000000
-2.618624 2.051490 -1.852908 0.000000 1.000000 0.000000
-2.744897 2.051490 -1.941462 0.000000 1.000000 -0.000000
1.522546 2.051490 -1.941463 0.000000 1.000000 0.000000
-2.618624 2.051490 -1.852908 0.000000 1.000000 0.000000
1.522546 2.051490 -1.852909 0.000000 1.000000 0.000000
-2.618624 2.051490 -1.941462 -0.000000 1.000000 -0.000000
-2.744896 -2.208494 1.954166 1.000000 -0.000000 0.000000
-2.744896 -2.208494 1.795156 1.000000 -0.000000 0.000000
-2.744896 1.971490 1.795156 -1.000000 0.000000 -0.000000
-2.744895 -2.208494 -1.852908 -1.000000 0.000000 -0.000000
-2.744896 -2.208494 1.795156 -1.000000 0.000000 -0.000000
-2.744895 1.971490 -1.852908 -1.000000 0.000000 -0.000000
-2.744895 1.971490 -1.852908 -1.000000 0.000000 0.000000
-2.744895 -2.208494 -1.941462 -1.000000 0.000000 0.000000
-2.744895 -2.208494 -1.852908 -1.000000 0.000000 0.000000
-2.744895 1.971490 -1.941462 -1.000000 -0.000000 0.000000
-2.744895 -2.208494 -1.941462 -0.000000 0.000000 -1.000000
-2.618621 -2.208494 -1.941462 -0.000000 0.000000 -1.000000
-2.744896 1.971490 1.954166 0.000000 0.000000 1.000000
-2.618621 -2.208494 1.954166 0.000000 0.000000 1.000000
-2.618621 1.971490 1.954166 0.000000 0.000000 1.000000
-2.744896 -2.208494 1.954166 -0.000000 0.000000 1.000000
-2.618621 1.971490 1.954166 -1.000000 0.000000 0.000000
-2.618621 -2.208494 1.795156 -1.000000 0.000000 0.000000
-2.618621 -2.208494 1.954166 -1.000000 0.000000 0.000000
-2.618621 1.971490 1.795156 -1.000000 -0.000000 0.000000
-2.618621 1.971490 -1.941462 1.000000 0.000000 -0.000003
-2.618621 -2.208494 -1.852908 1.000000 0.000000 -0.000003
-2.618621 -2.208494 -1.941462 1.000000 0.000000 -0.000003
-2.618621 1.971490 -1.852908 1.000000 0.000000 -0.000003
-2.618621 1.971490 -1.852908 1.000000 0.000000 0.000000
-2.618621 -2.208494 1.795156 1.000000 0.000000 0.000000
-2.618621 -2.208494 -1.852908 1.000000 0.000000 0.000000
-2.618621 1.971490 1.795156 1.000000 0.000000 0.000000
-2.744895 -2.208494 -1.941462 0.000000 -1.000000 -0.000000
-2.618621 -2.208494 -1.852908 0.000000 -1.000000 -0.000000
-2.744895 -2.208494 -1.852908 0.000000 -1.000000 -0.000000
-2.618621 -2.208494 -1.941462 0.000000 -1.000000 0.000000
-2.744896 -2.208494 1.795156 0.000000 -1.000000 -0.000000
-2.618621 -2.208494 1.954166 0.000000 -1.000000 -0.000000
-2.744896 -2.208494 1.954166 0.000000 -1.000000 -0.000000
-2.618621 -2.208494 1.795156 0.000000 -1.000000 0.000000
1.522548 1.971490 -1.941463 1.000000 -0.000000 0.000000
1.522548 -2.208494 -1.852909 1.000000 -0.000000 0.000000
1.522548 -2.208494 -1.941463 1.000000 -0.000000 0.000000
1.522548 1.971490 -1.852909 1.000000 0.000000 0.000000
1.646065 1.971490 -1.852909 -1.000000 0.000000 0.000000
1.646065 -2.208494 -1.941463 -1.000000 0.000000 0.000000
1.646065 -2.208494 -1.852909 -1.000000 0.000000 0.000000
1.646065 1.971490 -1.941463 -1.000000 -0.000000 0.000000
1.646066 -2.208494 1.954165 0.000000 0.000000 1.000000
1.522548 -2.208494 1.954165 -0.000000 0.000000 1.000000
1.522548 1.971490 -1.941463 0.000001 0.000000 1.000000
1.646065 -2.208494 -1.941463 0.000001 0.000000 1.000000
1.646065 1.971490 -1.941463 0.000001 0.000000 1.000000
1.522548 -2.208494 -1.941463 0.000001 -0.000000 1.000000
1.522548 1.971490 1.795155 -1.000000 0.000000 0.000000
1.522548 -2.208494 -1.852909 -1.000000 0.000000 0.000000
1.522548 -2.208494 1.795155 -1.000000 0.000000 0.000000
1.522548 1.971490 -1.852909 -1.000000 0.000000 0.000000
1.646066 1.971490 1.954165 -1.000000 0.000000 0.000000
1.646065 -2.208494 -1.941463 -1.000000 0.000000 0.000000
1.646066 -2.208494 1.954165 -1.000000 0.000000 0.000000
1.646065 1.971490 -1.941463 -1.000000 0.000000 0.000000
1.522548 -2.208494 1.795155 0.000000 -1.000000 -0.000000
1.646066 -2.208494 1.954165 0.000000 -1.000000 -0.000000
1.522548 -2.208494 1.954165 0.000000 -1.000000 -0.000000
1.646066 -2.208494 1.795155 0.000000 -1.000000 0.000000
1.522548 -2.208494 -1.941463 0.000000 -1.000000 -0.000000
1.646065 -2.208494 -1.852909 0.000000 -1.000000 -0.000000
1.522548 -2.208494 -1.852909 0.000000 -1.000000 -0.000000
1.646065 -2.208494 -1.941463 0.000000 -1.000000 0.000000
1.522548 -2.208494 -1.852909 0.000000 -1.000000 -0.000000
1.646066 -2.208494 1.795155 0.000000 -1.000000 -0.000000
1.522548 -2.208494 1.795155 0.000000 -1.000000 -0.000000
1.646065 -2.208494 -1.852909 0.000000 -1.000000 0.000000
-2.618621 1.971490 -1.852908 0.000000 0.000000 1.000000
1.522548 -2.208494 -1.852909 0.000000 0.000000 1.000000
1.522548 1.971490 -1.852909 0.000000 0.000000 1.000000
-2.618621 -2.208494 -1.852908 0.000000 -0.000000 1.000000
-2.618621 1.971490 -1.941462 0.000000 0.000000 1.000000
1.522548 -2.208494 -1.941463 0.000000 0.000000 1.000000
1.522548 1.971490 -1.941463 0.000000 0.000000 1.000000
-2.618621 -2.208494 -1.941462 0.000000 -0.000000 1.000000
3 0 1 2
3 1 0 3
3 4 5 6
3 5 4 7
3 8 9 10
3 11 12 13
3 14 15 16
3 15 14 17
3 18 19 20
3 21 22 23
3 24 25 26
3 25 24 27
3 28 29 30
3 29 28 31
3 32 33 34
3 33 32 35
3 36 37 38
3 39 40 41
3 42 43 44
3 45 46 47
3 48 49 50
3 49 48 51
3 52 53 54
3 55 56 57
3 58 59 60
3 59 58 61
3 62 63 64
3 63 62 65
3 66 67 68
3 67 66 69
3 61 70 59
3 70 61 71
3 72 73 74
3 73 72 75
3 76 77 78
3 77 76 79
3 4 79 76
3 79 4 7
3 80 81 82
3 81 80 83
3 84 85 86
3 85 84 87
3 88 89 90
3 89 88 91
3 92 93 94
3 93 92 95
3 30 96 97
3 96 30 29
3 98 99 100
3 99 98 101
3 102 103 104
3 103 102 105
3 106 76 107
3 76 106 4
3 108 109 110
3 109 108 111
3 112 113 114
3 113 112 115
3 116 117 118
3 117 116 119
3 120 121 122
3 121 120 123
3 124 125 126
3 125 124 127
3 128 129 130
3 129 128 131
3 126 131 128
3 131 126 125
3 132 133 134
3 133 132 135
3 136 137 138
3 137 136 139
3 59 140 60
3 140 59 141
3 142 143 144
3 143 142 145
3 146 147 148
3 147 146 149
3 150 151 152
3 151 150 153
3 154 155 156
3 155 154 157
3 158 159 160
3 159 158 161
3 162 163 164
3 163 162 165
3 166 167 168
3 167 166 169
3 170 171 172
3 171 170 173
3 125 158 160
3 158 125 127
