ply
format ascii 1.0
comment Created by Blender 2.78 (sub 0) - www.blender.org, source file: ''
element vertex 108
property float x
property float y
property float z
property float nx
property float ny
property float nz
element face 58
property list uchar uint vertex_indices
end_header
-2.744895 1.971490 -1.941462 -0.000000 -0.000000 -1.000000
1.522715 2.051490 -1.941463 -0.000000 -0.000000 -1.000000
1.522716 1.971490 -1.941463 -0.000000 -0.000000 -1.000000
-2.744897 2.051490 -1.941462 -0.000000 -0.000000 -1.000000
-2.744897 2.051490 -1.941462 1.000000 0.000024 0.000000
-2.744896 1.971490 1.954166 1.000000 0.000024 0.000000
-2.744895 1.971490 -1.941462 1.000000 0.000024 0.000000
-2.744896 1.971490 1.954166 1.000000 0.000000 -0.000000
-2.744897 2.051490 -1.941462 1.000000 0.000000 -0.000000
-2.744896 2.051490 1.954166 1.000000 0.000000 -0.000000
-2.744896 1.971490 1.954166 -0.000000 -1.000000 0.000000
1.522716 1.971490 -1.941463 -0.000000 -1.000000 0.000000
1.522717 1.971490 1.954165 -0.000000 -1.000000 0.000000
-2.744895 1.971490 -1.941462 0.000000 -1.000000 0.000000
-2.744896 2.051490 1.954166 -0.000000 -1.000000 -0.000000
1.522715 2.051490 -1.941463 -0.000000 -1.000000 -0.000000
1.522715 2.051490 1.954165 -0.000000 -1.000000 -0.000000
-2.744897 2.051490 -1.941462 0.000000 -1.000000 0.000000
-2.744896 2.051490 1.795156 1.000000 -0.000000 0.000000
-2.744896 1.971490 1.954166 1.000000 -0.000000 0.000000
-2.744896 1.971490 1.795156 1.000000 -0.000000 0.000000
-2.744896 2.051490 1.954166 1.000000 0.000000 0.000000
-2.744897 2.051490 -1.852908 -1.000000 -0.000024 -0.000000
-2.744895 1.971490 -1.941462 -1.000000 -0.000024 -0.000000
-2.744895 1.971490 -1.852908 -1.000000 -0.000024 -0.000000
-2.744895 1.971490 -1.941462 -1.000000 -0.000024 0.000000
-2.744897 2.051490 -1.852908 -1.000000 -0.000024 0.000000
-2.744897 2.051490 -1.941462 -1.000000 -0.000024 0.000000
-2.744896 1.971490 1.795156 -1.000000 -0.000024 -0.000000
-2.744897 2.051490 -1.852908 -1.000000 -0.000024 -0.000000
-2.744895 1.971490 -1.852908 -1.000000 -0.000024 -0.000000
-2.744897 2.051490 -1.852908 -1.000000 0.000000 0.000000
-2.744896 1.971490 1.795156 -1.000000 0.000000 0.000000
-2.744896 2.051490 1.795156 -1.000000 0.000000 0.000000
-2.744896 1.971490 1.954166 -0.000000 0.000000 -1.000000
-2.618621 2.051490 1.954166 -0.000000 0.000000 -1.000000
-2.618621 1.971490 1.954166 -0.000000 0.000000 -1.000000
-2.744896 2.051490 1.954166 0.000000 0.000000 -1.000000
-2.618621 1.971490 -1.941462 -0.000000 -0.000000 -1.000000
1.522546 2.051490 -1.941463 -0.000000 -0.000000 -1.000000
1.522548 1.971490 -1.941463 -0.000000 -0.000000 -1.000000
-2.618624 2.051490 -1.941462 -0.000000 -0.000000 -1.000000
-2.744896 2.051490 1.795156 0.000000 -1.000000 -0.000000
-2.618621 2.051490 1.954166 0.000000 -1.000000 -0.000000
-2.744896 2.051490 1.954166 0.000000 -1.000000 -0.000000
-2.618621 2.051490 1.795156 0.000000 -1.000000 0.000000
-2.744897 2.051490 -1.852908 0.000000 -1.000000 -0.000000
-2.618621 2.051490 1.795156 0.000000 -1.000000 -0.000000
-2.744896 2.051490 1.795156 0.000000 -1.000000 -0.000000
-2.618624 2.051490 -1.852908 0.000000 -1.000000 0.000000
-2.618624 2.051490 -1.941462 0.000000 1.000000 0.000000
-2.744897 2.051490 -1.852908 0.000000 1.000000 0.000000
-2.618624 2.051490 -1.852908 0.000000 1.000000 0.000000
-2.744897 2.051490 -1.941462 0.000000 1.000000 -0.000000
1.522546 2.051490 -1.941463 0.000000 1.000000 0.000000
-2.618624 2.051490 -1.852908 0.000000 1.000000 0.000000
1.522546 2.051490 -1.852909 0.000000 1.000000 0.000000
-2.618624 2.051490 -1.941462 -0.000000 1.000000 -0.000000
-2.744896 -2.208494 1.954166 1.000000 -0.000000 0.000000
-2.744896 -2.208494 1.795156 1.000000 -0.000000 0.000000
-2.744896 1.971490 1.795156 -1.000000 0.000000 -0.000000
-2.744895 -2.208494 -1.852908 -1.000000 0.000000 -0.000000
-2.744896 -2.208494 1.795156 -1.000000 0.000000 -0.000000
-2.744895 1.971490 -1.852908 -1.000000 0.000000 -0.000000
-2.744895 1.971490 -1.852908 -1.000000 0.000000 0.000000
-2.744895 -2.208494 -1.941462 -1.000000 0.000000 0.000000
-2.744895 -2.208494 -1.852908 -1.000000 0.000000 0.000000
-2.744895 1.971490 -1.941462 -1.000000 -0.000000 0.000000
-2.744895 -2.208494 -1.941462 -0.000000 0.000000 -1.000000
-2.618621 -2.208494 -1.941462 -0.000000 0.000000 -1.000000
-2.744896 1.971490 1.954166 0.000000 0.000000 1.000000
-2.618621 -2.208494 1.954166 0.000000 0.000000 1.000000
-2.618621 1.971490 1.954166 0.000000 0.000000 1.000000
-2.744896 -2.208494 1.954166 -0.000000 0.000000 1.000000
-2.618621 1.971490 1.954166 -1.000000 0.000000 0.000000
-2.618621 -2.208494 1.795156 -1.000000 0.000000 0.000000
-2.618621 -2.208494 1.954166 -1.000000 0.000000 0.000000
-2.618621 1.971490 1.795156 -1.000000 -0.000000 0.000000
-2.618621 1.971490 -1.941462 1.000000 -0.000000 0.000000
-2.618621 -2.208494 -1.852908 1.000000 -0.000000 0.000000
-2.618621 -2.208494 -1.941462 1.000000 -0.000000 0.000000
-2.618621 1.971490 -1.852908 1.000000 0.000000 0.000000
-2.618621 1.971490 -1.852908 1.000000 -0.000000 0.000000
-2.618621 -2.208494 1.795156 1.000000 -0.000000 0.000000
-2.618621 -2.208494 -1.852908 1.000000 -0.000000 0.000000
-2.618621 1.971490 1.795156 1.000000 0.000000 0.000000
-2.744895 -2.208494 -1.941462 0.000000 -1.000000 -0.000000
-2.618621 -2.208494 -1.852908 0.000000 -1.000000 -0.000000
-2.744895 -2.208494 -1.852908 0.000000 -1.000000 -0.000000
-2.618621 -2.208494 -1.941462 0.000000 -1.000000 0.000000
-2.744896 -2.208494 1.795156 0.000000 -1.000000 -0.000000
-2.618621 -2.208494 1.954166 0.000000 -1.000000 -0.000000
-2.744896 -2.208494 1.954166 0.000000 -1.000000 -0.000000
-2.618621 -2.208494 1.795156 0.000000 -1.000000 0.000000
1.522548 1.971490 -1.941463 1.000000 -0.000000 0.000000
1.522548 -2.208494 -1.852909 1.000000 -0.000000 0.000000
1.522548 -2.208494 -1.941463 1.000000 -0.000000 0.000000
1.522548 1.971490 -1.852909 1.000000 0.000000 0.000000
-2.618621 1.971490 -1.852908 0.000000 0.000000 1.000000
1.522548 -2.208494 -1.852909 0.000000 0.000000 1.000000
1.522548 1.971490 -1.852909 0.000000 0.000000 1.000000
-2.618621 -2.208494 -1.852908 0.000000 -0.000000 1.000000
-2.618621 1.971490 -1.941462 0.000000 0.000000 1.000000
1.522548 -2.208494 -1.941463 0.000000 0.000000 1.000000
1.522548 1.971490 -1.941463 0.000000 0.000000 1.000000
-2.618621 -2.208494 -1.941462 0.000000 -0.000000 1.000000
1.522548 -2.208494 -1.941463 -0.000000 -1.000000 -0.000000
1.522548 -2.208494 -1.852909 -0.000000 -1.000000 -0.000000
3 0 1 2
3 1 0 3
3 4 5 6
3 7 8 9
3 10 11 12
3 11 10 13
3 14 15 16
3 15 14 17
3 18 19 20
3 19 18 21
3 22 23 24
3 25 26 27
3 28 29 30
3 31 32 33
3 34 35 36
3 35 34 37
3 38 39 40
3 39 38 41
3 0 41 38
3 41 0 3
3 42 43 44
3 43 42 45
3 46 47 48
3 47 46 49
3 50 51 52
3 51 50 53
3 54 55 56
3 55 54 57
3 20 58 59
3 58 20 19
3 60 61 62
3 61 60 63
3 64 65 66
3 65 64 67
3 68 38 69
3 38 68 0
3 70 71 72
3 71 70 73
3 74 75 76
3 75 74 77
3 78 79 80
3 79 78 81
3 82 83 84
3 83 82 85
3 86 87 88
3 87 86 89
3 90 91 92
3 91 90 93
3 88 93 90
3 93 88 87
3 94 95 96
3 95 94 97
3 98 99 100
3 99 98 101
3 102 103 104
3 103 102 105
3 87 106 107
3 106 87 89
